<svg width="25" height="25" viewBox="0 0 25 25" fill="none" xmlns="http://www.w3.org/2000/svg">
<path d="M11.9357 19.9883C11.86 19.9156 11.5998 19.3368 11.1101 18.1568L10.3958 16.4251L8.24163 16.413C6.99471 16.406 5.98487 16.3825 5.84651 16.3546C5.4893 16.2849 5.00798 16.0251 4.75016 15.762C4.48814 15.4946 4.23602 15.0284 4.16632 14.6852C4.13159 14.5227 4.12527 13.2686 4.13969 10.6932C4.15778 7.46356 4.16972 6.89985 4.22911 6.6702C4.44828 5.84135 5.13561 5.20913 5.95879 5.08298C6.36118 5.01772 17.9857 5.08282 18.3831 5.15256C19.1824 5.28336 19.8406 5.86447 20.0732 6.6326C20.1565 6.91726 20.1604 7.04804 20.1395 10.7692C20.126 13.1913 20.0995 14.6798 20.0676 14.8058C19.944 15.342 19.4847 15.9347 19.0007 16.1937C18.5031 16.457 18.3822 16.4698 16.0136 16.4566L13.864 16.4445L13.1303 18.1681C12.7227 19.113 12.3607 19.9184 12.3201 19.9587C12.1854 20.0933 12.0602 20.1016 11.9357 19.9883ZM17.5297 13.8715C17.6643 13.7955 17.8394 13.6521 17.9204 13.5443C18.1861 13.1941 18.2047 13.0634 18.2145 11.3178L18.2233 9.74802L17.2848 9.74277L17.2832 10.027L17.1854 9.93622C16.9407 9.7093 16.6106 9.63074 16.2303 9.70532C15.5142 9.85014 15.136 10.3624 15.1314 11.1922C15.1275 11.8869 15.3132 12.2353 15.8212 12.4908C16.0486 12.6047 16.1647 12.6369 16.3657 12.638C16.6875 12.6354 16.9561 12.5646 17.1133 12.4393L17.2388 12.3407L17.2064 12.5391C17.1418 12.9312 16.9351 13.124 16.5775 13.122L16.3719 13.1209L16.3668 14.0319L16.8272 14.0164C17.2297 14.005 17.3102 13.9876 17.5297 13.8715ZM8.44718 12.4358C8.70256 12.32 8.94975 12.0687 9.06735 11.8213C9.19411 11.5378 9.20243 10.8658 9.08363 10.5133C8.99576 10.2468 8.725 9.91134 8.50658 9.793C8.05219 9.55127 7.47089 9.58859 7.15203 9.88003L7.04865 9.96981L7.05707 8.46774L6.07398 8.46223L6.07158 10.4603L6.07393 12.4541L6.55644 12.4704C7.01226 12.4866 7.03459 12.4821 7.03509 12.3918C7.03572 12.2791 7.04924 12.2792 7.25405 12.4157C7.56569 12.6293 8.0214 12.6365 8.44718 12.436L8.44718 12.4358ZM13.6804 12.5103C13.9536 12.4126 14.3263 12.0945 14.4753 11.8291C14.9672 10.9748 14.4188 9.93437 13.3653 9.72082C12.7045 9.58636 11.9875 9.90711 11.6717 10.4828C11.5721 10.6716 11.5358 10.7977 11.5207 11.0684C11.5013 11.3704 11.5142 11.4425 11.6201 11.6868C11.7481 11.9807 12.0412 12.3027 12.3086 12.444C12.6963 12.649 13.2325 12.6747 13.6804 12.5103ZM10.8778 10.9563L10.8731 9.4138L10.7273 9.11072C10.5241 8.6902 10.199 8.46266 9.66321 8.36948L9.47133 8.33686L9.46852 8.83755C9.46612 9.26596 9.47467 9.33829 9.53717 9.33864C9.57737 9.33887 9.6753 9.4071 9.75978 9.49332L9.91095 9.64743L9.89498 12.4981L10.8825 12.5037L10.8778 10.9563Z" fill="#D9DBE0"/>
<path d="M16.4826 11.7005C16.1884 11.5725 16.0745 11.166 16.2504 10.8781C16.4942 10.4782 17.057 10.5173 17.2423 10.9468C17.379 11.268 17.2386 11.5963 16.9028 11.7209C16.7369 11.7831 16.6563 11.7782 16.4826 11.7005ZM7.31676 11.5995C6.98731 11.3675 7.02598 10.8265 7.38453 10.6572C7.87739 10.4253 8.34405 10.9196 8.09099 11.4054C7.96443 11.6528 7.53918 11.7587 7.31676 11.5995ZM12.7734 11.6572C12.7071 11.6166 12.6496 11.5628 12.6046 11.499C12.5597 11.4352 12.528 11.3629 12.5117 11.2863C12.4954 11.2098 12.4948 11.1307 12.5098 11.0539C12.5249 10.9771 12.5553 10.9042 12.5992 10.8396C12.7299 10.6465 12.8688 10.5752 13.1191 10.5766C13.2845 10.5775 13.3379 10.6003 13.4847 10.7544C13.6313 10.9042 13.6577 10.9584 13.6568 11.1253C13.6541 11.6079 13.1654 11.9029 12.7734 11.6572Z" fill="#D9DBE0"/>
</svg>
