<svg width="25" height="25" viewBox="0 0 25 25" fill="none" xmlns="http://www.w3.org/2000/svg">
<path d="M16.7725 19.272C16.7725 19.272 16.1536 18.5366 15.6377 17.8868C17.8901 17.2541 18.7497 15.852 18.7497 15.852C18.0448 16.3137 17.3742 16.6387 16.7725 16.8608C15.9129 17.22 15.0875 17.4592 14.2795 17.5961C12.6289 17.9039 11.1159 17.8184 9.82649 17.5791C8.84641 17.3908 8.00394 17.1173 7.29909 16.8438C6.90359 16.6899 6.47381 16.5018 6.04387 16.2624C5.9924 16.2282 5.94078 16.2111 5.88923 16.1768C5.85487 16.1598 5.83761 16.1427 5.82043 16.1256C5.51099 15.9546 5.33902 15.8349 5.33902 15.8349C5.33902 15.8349 6.16438 17.2029 8.34782 17.8526C7.83213 18.5025 7.19592 19.2719 7.19592 19.2719C3.39614 19.1522 1.95203 16.6728 1.95203 16.6728C1.95203 11.1668 4.42783 6.70374 4.42783 6.70374C6.90359 4.85701 9.25909 4.90835 9.25909 4.90835L9.43099 5.11362C6.33628 6.00255 4.90923 7.3536 4.90923 7.3536C4.90923 7.3536 5.28747 7.14841 5.92352 6.85776C7.76324 6.05397 9.22473 5.83179 9.82649 5.78045C9.92958 5.76332 10.0156 5.74618 10.1188 5.74618C11.2709 5.59696 12.4369 5.58548 13.5918 5.71206C15.2251 5.90019 16.9789 6.37897 18.7669 7.3536C18.7669 7.3536 17.4087 6.07118 14.4858 5.18201L14.7265 4.90842C14.7265 4.90842 17.082 4.85701 19.5577 6.7039C19.5577 6.7039 22.0337 11.1668 22.0337 16.6728C22.0337 16.6728 20.5722 19.1522 16.7725 19.2719V19.272ZM8.77768 11.2865C7.79768 11.2865 7.0241 12.1414 7.0241 13.1845C7.0241 14.2275 7.81486 15.0825 8.77768 15.0825C9.75776 15.0825 10.5313 14.2276 10.5313 13.1845C10.5486 12.1414 9.7576 11.2865 8.77768 11.2865ZM15.0532 11.2865C14.0732 11.2865 13.2994 12.1414 13.2994 13.1845C13.2994 14.2275 14.0904 15.0825 15.0532 15.0825C16.0332 15.0825 16.8068 14.2276 16.8068 13.1845C16.8068 12.1414 16.0332 11.2865 15.0532 11.2865Z" fill="#D9DBE0"/>
</svg>
