<svg width="25" height="25" viewBox="0 0 25 25" fill="none" xmlns="http://www.w3.org/2000/svg">
<path fill-rule="evenodd" clip-rule="evenodd" d="M13.2721 5.93621C12.6321 5.41022 11.7109 5.40506 11.0651 5.92385L5.54013 10.3617C5.12928 10.6917 4.88902 11.1893 4.88607 11.7163L4.85354 17.5263C4.84812 18.4928 5.62723 19.2806 6.59371 19.286L8.84367 19.2986L8.87027 14.5487C8.88033 12.7538 10.3435 11.3069 12.1384 11.317C13.9333 11.327 15.3802 12.7902 15.3702 14.5851L15.3436 19.335L17.5935 19.3476C18.56 19.3531 19.3479 18.574 19.3533 17.6075L19.3858 11.7975C19.3888 11.2705 19.1541 10.7703 18.747 10.4357L13.2721 5.93621ZM13.8436 19.3266L13.8702 14.5767C13.8756 13.6102 13.0965 12.8224 12.13 12.8169C11.1635 12.8115 10.3757 13.5906 10.3703 14.5571L10.3437 19.307L13.8436 19.3266ZM10.1257 4.7544C11.3252 3.79093 13.0359 3.80051 14.2245 4.77735L19.6994 9.27683C20.4555 9.89822 20.8913 10.8272 20.8858 11.8059L20.8533 17.6159C20.8432 19.4108 19.38 20.8577 17.5851 20.8476L6.58531 20.786C4.79041 20.776 3.34351 19.3128 3.35356 17.5179L3.3861 11.7079C3.39158 10.7292 3.83777 9.80516 4.60078 9.19228L10.1257 4.7544Z" fill="#D9DBE0"/>
</svg>
