<svg width="25" height="25" viewBox="0 0 25 25" fill="none" xmlns="http://www.w3.org/2000/svg">
<path fill-rule="evenodd" clip-rule="evenodd" d="M19.5334 8.31201C19.0964 7.29526 18.5039 6.38789 17.7557 5.61196C16.9854 4.83591 16.1035 4.21362 15.0879 3.76694C14.0722 3.32026 12.9669 3.07151 11.7717 3.06482C10.6208 3.05837 9.51306 3.25059 8.47034 3.68574C7.42758 4.1209 6.51682 4.71118 5.71581 5.45636C4.91473 6.22361 4.29005 7.10209 3.84171 8.11389C3.38201 9.14747 3.14209 10.2648 3.13717 11.3953C3.13075 12.5419 3.3238 13.6455 3.76066 14.6842C4.19752 15.723 4.79004 16.6304 5.56025 17.4284C6.33046 18.2265 7.23443 18.849 8.2501 19.2957C9.28788 19.7425 10.3711 19.991 11.5441 19.9976L20.0207 20.1113L20.1346 11.6228C20.1633 10.4543 19.9481 9.3506 19.5334 8.31201ZM12.3189 11.1195L18.3614 17.3109L18.4304 11.6133C18.4357 10.6651 18.2857 9.78228 17.9361 8.96455C17.5866 8.14672 17.1259 7.41654 16.5096 6.79564C15.8934 6.15277 15.1879 5.66379 14.371 5.3064C13.554 4.94901 12.6698 4.74564 11.7181 4.74031C10.7885 4.7351 9.92443 4.88454 9.08138 5.23264C8.2605 5.58086 7.5275 6.03981 6.88221 6.65355C6.25901 7.26751 5.74599 7.97016 5.38732 8.78403C5.0286 9.59779 4.82449 10.4786 4.81918 11.4268C4.81399 12.3528 4.9641 13.2137 5.31356 14.0535C5.65912 14.8652 6.14995 15.6076 6.76208 16.2445C7.37836 16.8654 8.10593 17.3765 8.92286 17.7339C9.7398 18.0913 10.624 18.2947 11.5536 18.2999L17.2731 18.3876L14.2744 15.3151C14.2586 15.3158 14.2426 15.3162 14.2264 15.3161L9.40138 15.2891C8.98088 15.2867 8.62858 14.954 8.63105 14.513C8.63339 14.0941 8.98952 13.7433 9.41003 13.7456L12.7611 13.7644L8.13062 9.01989C7.82246 8.70938 7.84733 8.2245 8.13667 7.93941C8.44824 7.63248 8.93504 7.65728 9.22117 7.94548L11.1187 9.88975L12.2373 6.88196C12.3945 6.48599 12.8384 6.26798 13.2359 6.4246C13.6334 6.58111 13.8523 7.02332 13.6951 7.4194L12.3189 11.1195Z" fill="#D9DBE0"/>
</svg>
