<svg width="25" height="25" viewBox="0 0 25 25" fill="none" xmlns="http://www.w3.org/2000/svg">
<path d="M8.86279 4.10453C8.01137 4.13993 7.42933 4.27251 6.92005 4.46934C6.39299 4.67135 5.94569 4.94389 5.49968 5.38653C5.05367 5.82916 4.77805 6.2737 4.57158 6.79928C4.37177 7.30745 4.23508 7.88845 4.19271 8.73991C4.15034 9.59137 4.14048 9.86508 4.13248 12.0376C4.12447 14.21 4.13255 14.4824 4.16905 15.3361C4.20492 16.1873 4.33703 16.7692 4.53386 17.2786C4.73619 17.8057 5.00842 18.2528 5.45121 18.699C5.894 19.1452 6.33823 19.4201 6.86509 19.6269C7.37279 19.8264 7.95395 19.9637 8.80526 20.0058C9.65657 20.0478 9.9306 20.058 12.1024 20.066C14.2743 20.074 14.5478 20.066 15.4013 20.0303C16.2548 19.9946 16.8336 19.8615 17.3432 19.6656C17.8703 19.4628 18.3177 19.191 18.7636 18.7481C19.2095 18.3051 19.4849 17.8603 19.6912 17.3344C19.8912 16.8267 20.0284 16.2455 20.0701 15.3949C20.1122 14.5412 20.1225 14.2686 20.1305 12.0964C20.1385 9.92427 20.1303 9.6519 20.0945 8.79856C20.0588 7.94523 19.9266 7.36511 19.7299 6.85536C19.5272 6.3283 19.2553 5.88149 18.8127 5.435C18.3701 4.98851 17.9249 4.71321 17.3992 4.50739C16.8911 4.30758 16.3103 4.17008 15.459 4.12851C14.6077 4.08694 14.3336 4.07597 12.161 4.06796C9.98834 4.05996 9.71629 4.06771 8.86279 4.10453ZM8.87524 18.567C8.09543 18.5287 7.67264 18.3967 7.39101 18.2866C7.01806 18.1406 6.75279 17.965 6.47308 17.6849C6.19336 17.4047 6.02205 17.1366 5.87822 16.7628C5.7702 16.4799 5.64057 16.0562 5.60846 15.276C5.5735 14.4327 5.5666 14.1795 5.57392 12.0437C5.58124 9.90787 5.59082 9.65512 5.6325 8.81197C5.67014 8.03281 5.80292 7.60955 5.91282 7.32808C6.05891 6.95465 6.23384 6.68986 6.51461 6.41031C6.79539 6.13076 7.06275 5.95913 7.43685 5.8153C7.71938 5.7068 8.14315 5.57829 8.92304 5.54554C9.76694 5.51026 10.0198 5.50368 12.1553 5.511C14.2908 5.51832 14.5442 5.52774 15.388 5.56958C16.1672 5.60787 16.5906 5.73936 16.8718 5.8499C17.2449 5.99599 17.51 6.17044 17.7896 6.45169C18.0691 6.73294 18.2409 6.99935 18.3847 7.37424C18.4934 7.65597 18.6219 8.07958 18.6543 8.85994C18.6898 9.70383 18.6975 9.95684 18.6893 12.0922C18.6812 14.2276 18.6723 14.4811 18.6306 15.3239C18.5922 16.1037 18.4605 16.5267 18.3503 16.8086C18.2042 17.1814 18.0291 17.4468 17.7482 17.7262C17.4672 18.0056 17.2002 18.1773 16.8259 18.3211C16.5437 18.4294 16.1195 18.5582 15.3402 18.591C14.4963 18.626 14.2435 18.6329 12.1072 18.6255C9.97082 18.6182 9.71887 18.6082 8.8754 18.567M15.4574 7.80985C15.4567 7.99974 15.5122 8.18558 15.6171 8.34387C15.722 8.50216 15.8715 8.6258 16.0466 8.69914C16.2218 8.77248 16.4147 8.79223 16.6011 8.75589C16.7875 8.71956 16.9589 8.62877 17.0937 8.49501C17.2285 8.36124 17.3205 8.19052 17.3583 8.00442C17.396 7.81833 17.3777 7.62522 17.3057 7.44952C17.2337 7.27382 17.1112 7.12343 16.9537 7.01736C16.7962 6.91129 16.6108 6.85432 16.4209 6.85363C16.1663 6.85271 15.9218 6.95293 15.7411 7.13225C15.5605 7.31157 15.4584 7.5553 15.4574 7.80985ZM8.02386 12.052C8.01563 14.3208 9.84791 16.1661 12.1162 16.1745C14.3846 16.1829 16.2312 14.3508 16.2396 12.082C16.248 9.8132 14.4152 7.96738 12.1466 7.95916C9.87791 7.95093 8.03224 9.78351 8.02386 12.052ZM9.46483 12.0572C9.46674 11.5298 9.62501 11.0147 9.91962 10.5773C10.2142 10.1398 10.632 9.79949 11.12 9.59942C11.608 9.39935 12.1444 9.34848 12.6613 9.45325C13.1782 9.55802 13.6524 9.81372 14.024 10.188C14.3956 10.5623 14.6479 11.0384 14.7489 11.5561C14.85 12.0737 14.7952 12.6097 14.5916 13.0963C14.388 13.5828 14.0447 13.9981 13.6051 14.2895C13.1655 14.5809 12.6493 14.7355 12.1219 14.7335C11.7717 14.7323 11.4252 14.6621 11.1021 14.5269C10.779 14.3918 10.4857 14.1943 10.239 13.9458C9.99223 13.6972 9.79687 13.4025 9.66404 13.0785C9.53121 12.7544 9.46352 12.4074 9.46483 12.0572Z" fill="#D9DBE0"/>
</svg>
