<svg width="25" height="25" viewBox="0 0 25 25" fill="none" xmlns="http://www.w3.org/2000/svg">
<path d="M12.5992 18.0697C12.6002 18.0697 17.9149 18.0992 19.2427 17.7485C19.9753 17.5554 20.5544 16.9777 20.7541 16.2413C21.1167 14.9064 21.1326 12.1178 21.1326 12.1174C21.1326 12.1174 21.148 9.32837 20.8003 7.98949C20.6089 7.25079 20.0362 6.66669 19.3059 6.46547C17.9821 6.09986 12.6674 6.06989 12.6664 6.06988C12.6664 6.06988 7.35084 6.04029 6.02287 6.39108C5.29036 6.58411 4.71108 7.16176 4.51147 7.89827C4.14879 9.23317 4.1329 12.0222 4.1329 12.0222C4.1329 12.0226 4.1176 14.8112 4.46526 16.1501C4.65661 16.8887 5.22938 17.4728 5.95968 17.6741C7.28361 18.0397 12.5992 18.0697 12.5992 18.0697ZM10.9087 9.52787L15.3368 12.0849L10.8803 14.5922L10.9087 9.52787Z" fill="#D9DBE0"/>
</svg>
