<svg width="46" height="32" viewBox="0 0 46 32" fill="none" xmlns="http://www.w3.org/2000/svg">
<path d="M30.266 6.25C30.586 6.05 30.826 5.97 30.986 6.01C31.186 6.01 31.546 6.15 32.066 6.43C32.746 6.83 33.146 7.11 33.266 7.27C33.426 7.43 33.506 7.75 33.506 8.23C33.506 8.99 33.286 9.71 32.846 10.39C32.406 11.07 31.966 11.41 31.526 11.41C31.006 11.41 30.686 11.69 30.566 12.25C30.446 12.81 30.606 13.21 31.046 13.45C31.366 13.57 31.766 13.59 32.246 13.51C32.766 13.39 33.346 13.43 33.986 13.63C34.666 13.83 35.106 13.93 35.306 13.93C35.706 13.93 36.246 14.39 36.926 15.31C37.646 16.19 38.006 16.89 38.006 17.41C38.006 17.77 38.066 18.11 38.186 18.43C38.386 19.03 38.046 20.15 37.166 21.79C36.446 23.07 35.906 23.89 35.546 24.25C35.186 24.57 34.586 24.81 33.746 24.97C32.786 25.13 32.026 25.31 31.466 25.51C30.786 25.75 30.086 25.75 29.366 25.51C28.686 25.27 28.166 24.85 27.806 24.25C27.566 23.89 27.226 23.63 26.786 23.47C25.226 22.95 24.426 21.17 24.386 18.13C24.346 17.45 24.266 16.99 24.146 16.75C23.986 16.51 23.946 16.25 24.026 15.97C24.186 15.01 24.526 13.99 25.046 12.91C25.446 12.07 25.646 11.59 25.646 11.47C25.646 11.39 25.746 11.27 25.946 11.11C26.146 10.91 26.366 10.57 26.606 10.09C26.806 9.69 27.346 9.03 28.226 8.11C29.146 7.15 29.826 6.53 30.266 6.25ZM14.426 7.33C14.866 7.09 15.146 6.97 15.266 6.97C15.386 6.97 15.686 7.07 16.166 7.27C16.806 7.55 17.166 7.79 17.246 7.99C17.366 8.15 17.366 8.51 17.246 9.07C17.086 9.75 17.006 10.17 17.006 10.33C16.926 10.57 16.726 10.77 16.406 10.93C15.766 11.25 15.226 11.77 14.786 12.49C14.386 13.05 14.666 13.39 15.626 13.51C15.946 13.55 16.286 13.55 16.646 13.51C17.526 13.47 18.506 13.75 19.586 14.35C20.706 14.91 21.446 15.55 21.806 16.27C22.006 16.59 22.086 17.37 22.046 18.61C22.046 19.81 21.946 20.57 21.746 20.89C21.546 21.17 21.406 21.51 21.326 21.91C21.206 22.31 21.026 22.57 20.786 22.69C20.546 22.85 20.246 23.11 19.886 23.47C19.526 23.87 19.246 24.07 19.046 24.07C18.846 24.07 18.486 24.25 17.966 24.61C17.086 25.25 16.266 25.37 15.506 24.97C15.226 24.81 14.806 24.73 14.246 24.73C13.686 24.69 13.026 24.45 12.266 24.01C11.626 23.65 11.026 23.31 10.466 22.99C9.746 22.59 9.326 22.07 9.206 21.43C9.166 21.07 8.986 20.67 8.666 20.23C8.266 19.59 8.046 18.59 8.006 17.23C7.966 15.83 8.126 14.91 8.486 14.47C8.566 14.35 8.626 14.03 8.666 13.51C8.746 12.99 8.946 12.45 9.266 11.89C9.586 11.29 9.766 10.81 9.806 10.45C9.926 9.77 10.386 9.33 11.186 9.13C11.546 9.01 11.926 8.75 12.326 8.35C12.766 7.91 13.106 7.69 13.346 7.69C13.586 7.69 13.946 7.57 14.426 7.33Z" fill="#2E6FF2"/>
</svg>
